<?xml version="1.0" encoding="UTF-8" standalone="no"?>
<!-- Generator: Adobe Illustrator 19.1.0, SVG Export Plug-In . SVG Version: 6.00 Build 0)  -->

<svg
   xmlns:dc="http://purl.org/dc/elements/1.1/"
   xmlns:cc="http://creativecommons.org/ns#"
   xmlns:rdf="http://www.w3.org/1999/02/22-rdf-syntax-ns#"
   xmlns:svg="http://www.w3.org/2000/svg"
   xmlns="http://www.w3.org/2000/svg"
   xmlns:sodipodi="http://sodipodi.sourceforge.net/DTD/sodipodi-0.dtd"
   xmlns:inkscape="http://www.inkscape.org/namespaces/inkscape"
   version="1.1"
   id="Layer_1"
   x="0px"
   y="0px"
   viewBox="0 0 72 72"
   style="enable-background:new 0 0 72 72;"
   xml:space="preserve"
   sodipodi:docname="payload_disarmed.svg"
   inkscape:version="0.92.5 (2060ec1f9f, 2020-04-08)"><metadata
   id="metadata17"><rdf:RDF><cc:Work
       rdf:about=""><dc:format>image/svg+xml</dc:format><dc:type
         rdf:resource="http://purl.org/dc/dcmitype/StillImage" /></cc:Work></rdf:RDF></metadata><defs
   id="defs15" /><sodipodi:namedview
   pagecolor="#ffffff"
   bordercolor="#000000"
   borderopacity="0.25"
   objecttolerance="10"
   gridtolerance="10"
   guidetolerance="10"
   inkscape:pageopacity="0"
   inkscape:pageshadow="2"
   inkscape:window-width="1569"
   inkscape:window-height="951"
   id="namedview13"
   showgrid="false"
   inkscape:zoom="3.2777778"
   inkscape:cx="36"
   inkscape:cy="11.59322"
   inkscape:window-x="0"
   inkscape:window-y="27"
   inkscape:window-maximized="0"
   inkscape:current-layer="Layer_1" />
<style
   type="text/css"
   id="style2">
	.st0{fill:#F0493C;stroke:#FFFFFF;stroke-width:5;stroke-miterlimit:10;}
	.st1{fill:none;stroke:#FFFFFF;stroke-width:5;stroke-linecap:round;stroke-linejoin:round;stroke-miterlimit:10;}
</style>
<path
   d="M 36 3.5996094 A 32.400002 32.400002 0 0 0 3.5996094 36 A 32.400002 32.400002 0 0 0 36 68.400391 A 32.400002 32.400002 0 0 0 68.400391 36 A 32.400002 32.400002 0 0 0 36 3.5996094 z M 22.435547 20.257812 C 23.125007 20.245507 23.819694 20.496754 24.357422 21.015625 L 36 32.25 L 47.642578 21.015625 C 48.718034 19.977881 50.419288 20.008528 51.457031 21.083984 C 52.494775 22.159441 52.466081 23.860694 51.390625 24.898438 L 39.886719 36 L 51.390625 47.101562 C 52.46608 48.139306 52.494774 49.84056 51.457031 50.916016 C 50.419288 51.991472 48.718034 52.022119 47.642578 50.984375 L 36 39.75 L 24.357422 50.984375 C 23.281966 52.02212 21.580712 51.991473 20.542969 50.916016 C 19.505225 49.84056 19.533919 48.139306 20.609375 47.101562 L 32.113281 36 L 20.609375 24.898438 C 19.53392 23.860693 19.505226 22.159441 20.542969 21.083984 C 21.061841 20.546256 21.746087 20.270112 22.435547 20.257812 z "
   id="circle4"
   style="fill:#ff8080" />

</svg>