<?xml version="1.0" encoding="UTF-8" standalone="no"?>
<!-- Generator: Adobe Illustrator 21.1.0, SVG Export Plug-In . SVG Version: 6.00 Build 0)  -->

<svg
   xmlns:dc="http://purl.org/dc/elements/1.1/"
   xmlns:cc="http://creativecommons.org/ns#"
   xmlns:rdf="http://www.w3.org/1999/02/22-rdf-syntax-ns#"
   xmlns:svg="http://www.w3.org/2000/svg"
   xmlns="http://www.w3.org/2000/svg"
   xmlns:sodipodi="http://sodipodi.sourceforge.net/DTD/sodipodi-0.dtd"
   xmlns:inkscape="http://www.inkscape.org/namespaces/inkscape"
   version="1.1"
   id="Layer_1"
   x="0px"
   y="0px"
   width="215"
   height="215"
   viewBox="0 0 215 215"
   xml:space="preserve"
   sodipodi:docname="QGCLogoSYOSBlack.svg"
   inkscape:version="0.92.5 (2060ec1f9f, 2020-04-08)"><metadata
   id="metadata84"><rdf:RDF><cc:Work
       rdf:about=""><dc:format>image/svg+xml</dc:format><dc:type
         rdf:resource="http://purl.org/dc/dcmitype/StillImage" /><dc:title /></cc:Work></rdf:RDF></metadata><defs
   id="defs82">
	
	
	
	

		
	
			
			
			
			
		</defs><sodipodi:namedview
   pagecolor="#ffffff"
   bordercolor="#000000"
   borderopacity="0.25"
   objecttolerance="10"
   gridtolerance="10"
   guidetolerance="10"
   inkscape:pageopacity="0"
   inkscape:pageshadow="2"
   inkscape:window-width="1440"
   inkscape:window-height="836"
   id="namedview80"
   showgrid="false"
   inkscape:zoom="3.0093024"
   inkscape:cx="60.146833"
   inkscape:cy="107.5"
   inkscape:window-x="0"
   inkscape:window-y="27"
   inkscape:window-maximized="1"
   inkscape:current-layer="Layer_1" />
<style
   type="text/css"
   id="style67">
	.st0{fill:#FFFFFF;}
	.st1{fill:#4B2C6D;stroke:#FFFFFF;stroke-width:3;stroke-miterlimit:10;}
	.st2{fill:#5ECBF1;}
</style>





<style
   id="style175"
   type="text/css">
	.st0{fill:#F26522;}
	.st1{fill:#FFFFFF;}
</style><path
   style="fill:#f26522;stroke-width:0.22416849"
   inkscape:connector-curvature="0"
   class="st0"
   d="m 107.48879,49.204994 c 8.40632,0 16.16255,1.322595 23.26869,3.945362 4.50579,1.681259 8.60807,3.810862 12.32927,6.388795 C 143.423,29.63508 142.77291,6.100865e-6 142.77291,6.100865e-6 c 0,0 -19.0319,24.456782899135 -36.94296,49.227396899135 0.538,0 1.09842,-0.02244 1.65884,-0.02244 z"
   id="path177" /><path
   style="fill:#28170b;stroke-width:0.22416849"
   inkscape:connector-curvature="0"
   class="st1"
   d="m 59.606404,105.76269 c 0,-7.106134 1.188093,-13.539763 3.564278,-19.300897 2.376186,-5.761134 5.69388,-10.670427 9.975498,-14.727863 4.259201,-4.057452 9.325409,-7.173396 15.176207,-9.347832 5.850797,-2.174437 12.239603,-3.250443 19.188823,-3.250443 6.92681,0 13.33802,1.09843 19.18882,3.250443 5.8508,2.174436 10.89459,5.29038 15.17621,9.347832 4.2592,4.057436 7.57689,8.966729 9.95308,14.727863 2.37618,5.761134 3.56428,12.194763 3.56428,19.300897 0,7.10614 -1.1881,13.53979 -3.56428,19.30092 -2.37619,5.76112 -5.69388,10.67041 -9.95308,14.72786 -4.2592,4.05746 -9.32541,7.1734 -15.17621,9.34783 -5.8508,2.17444 -12.2396,3.25044 -19.18882,3.25044 -6.92681,0 -13.338026,-1.09842 -19.188823,-3.25044 -5.850798,-2.17443 -10.894589,-5.29037 -15.176207,-9.34783 -4.259201,-4.05745 -7.576895,-8.96674 -9.975498,-14.72786 -2.376185,-5.76113 -3.564278,-12.19478 -3.564278,-19.30092 z m 20.287248,0 c 0,4.16955 0.650088,8.00282 1.950265,11.47744 1.300177,3.47461 3.160776,6.47846 5.581795,9.03399 2.42102,2.55552 5.335211,4.5282 8.720154,5.96287 3.384945,1.41226 7.173394,2.1296 11.342924,2.1296 4.16954,0 7.95798,-0.71734 11.34293,-2.1296 3.38494,-1.41226 6.27671,-3.40735 8.72015,-5.96287 2.42102,-2.55553 4.28162,-5.55938 5.5818,-9.03399 1.30017,-3.47462 1.95026,-7.28549 1.95026,-11.47744 0,-4.10228 -0.65009,-7.890718 -1.95026,-11.410159 -1.30018,-3.519456 -3.16078,-6.545734 -5.5818,-9.078834 -2.42102,-2.555525 -5.33521,-4.528205 -8.72015,-5.962875 -3.38495,-1.412261 -7.17339,-2.129604 -11.34293,-2.129604 -4.16953,0 -7.957979,0.717343 -11.342924,2.129604 -3.384943,1.412261 -6.299134,3.40735 -8.720154,5.962875 -2.421019,2.555524 -4.281618,5.581802 -5.581795,9.078834 -1.300177,3.519441 -1.950265,7.307879 -1.950265,11.410159 z"
   id="path183" /><path
   style="fill:#f26522;stroke-width:0.22416849"
   inkscape:connector-curvature="0"
   class="st0"
   d="m 107.48879,162.32041 c -8.406316,0 -16.162546,-1.3226 -23.268686,-3.94537 -4.729955,-1.74851 -9.033991,-4.03503 -12.889688,-6.81472 C 70.926912,183.16808 71.621835,215 71.621835,215 c 0,0 20.601083,-26.49671 39.565735,-52.79168 -1.23292,0.0673 -2.46585,0.11209 -3.69878,0.11209 z"
   id="path213" /></svg>