<?xml version="1.0" encoding="UTF-8" standalone="no"?>
<!-- Generator: Adobe Illustrator 21.1.0, SVG Export Plug-In . SVG Version: 6.00 Build 0)  -->

<svg
   xmlns:dc="http://purl.org/dc/elements/1.1/"
   xmlns:cc="http://creativecommons.org/ns#"
   xmlns:rdf="http://www.w3.org/1999/02/22-rdf-syntax-ns#"
   xmlns:svg="http://www.w3.org/2000/svg"
   xmlns="http://www.w3.org/2000/svg"
   xmlns:sodipodi="http://sodipodi.sourceforge.net/DTD/sodipodi-0.dtd"
   xmlns:inkscape="http://www.inkscape.org/namespaces/inkscape"
   version="1.1"
   id="Layer_1"
   x="0px"
   y="0px"
   width="215"
   height="215"
   viewBox="0 0 215 215"
   xml:space="preserve"
   sodipodi:docname="QGCLogoFull.svg"
   inkscape:version="0.92.5 (2060ec1f9f, 2020-04-08)"><metadata
   id="metadata84"><rdf:RDF><cc:Work
       rdf:about=""><dc:format>image/svg+xml</dc:format><dc:type
         rdf:resource="http://purl.org/dc/dcmitype/StillImage" /><dc:title></dc:title></cc:Work></rdf:RDF></metadata><defs
   id="defs82">
	
	
	
	

		
	
			
			
			
			
		</defs><sodipodi:namedview
   pagecolor="#ffffff"
   bordercolor="#000000"
   borderopacity="0.25"
   objecttolerance="10"
   gridtolerance="10"
   guidetolerance="10"
   inkscape:pageopacity="0"
   inkscape:pageshadow="2"
   inkscape:window-width="1440"
   inkscape:window-height="836"
   id="namedview80"
   showgrid="false"
   inkscape:zoom="3.0093024"
   inkscape:cx="107.5"
   inkscape:cy="107.5"
   inkscape:window-x="0"
   inkscape:window-y="27"
   inkscape:window-maximized="1"
   inkscape:current-layer="Layer_1" />
<style
   type="text/css"
   id="style67">
	.st0{fill:#FFFFFF;}
	.st1{fill:#4B2C6D;stroke:#FFFFFF;stroke-width:3;stroke-miterlimit:10;}
	.st2{fill:#5ECBF1;}
</style>





<style
   id="style175"
   type="text/css">
	.st0{fill:#F26522;}
	.st1{fill:#FFFFFF;}
</style><g
   id="g3981"
   transform="matrix(1.5059781,0,0,1.5059781,24.987943,298.52756)"><path
     id="path177"
     d="m 54.782237,-165.55524 c 5.581966,0 10.732259,0.87823 15.450881,2.6198 2.991934,1.11639 5.715933,2.53049 8.186883,4.24229 0.223279,-19.85691 -0.208393,-39.5352 -0.208393,-39.5352 0,0 -12.637571,16.2398 -24.530879,32.68799 0.357246,0 0.729377,-0.0149 1.101508,-0.0149 z"
     class="st0"
     inkscape:connector-curvature="0"
     style="fill:#f26522;stroke-width:0.14885242" /><path
     id="path183"
     d="m 22.98736,-127.99978 c 0,-4.71862 0.788918,-8.99068 2.366753,-12.81619 1.577836,-3.82551 3.780852,-7.08538 6.623933,-9.7796 2.828196,-2.69423 6.192261,-4.76328 10.077309,-6.20715 3.885048,-1.44387 8.127342,-2.15836 12.741767,-2.15836 4.59954,0 8.856719,0.72938 12.741767,2.15836 3.885048,1.44387 7.234228,3.51292 10.077309,6.20715 2.828196,2.69422 5.031212,5.95409 6.609048,9.7796 1.577835,3.82551 2.366753,8.09757 2.366753,12.81619 0,4.71862 -0.788918,8.99069 -2.366753,12.8162 -1.577836,3.8255 -3.780852,7.08537 -6.609048,9.7796 -2.828196,2.69423 -6.192261,4.76328 -10.077309,6.207147 -3.885048,1.443868 -8.127342,2.15836 -12.741767,2.15836 -4.59954,0 -8.856719,-0.729377 -12.741767,-2.15836 -3.885048,-1.443867 -7.234228,-3.512917 -10.077309,-6.207147 -2.828196,-2.69423 -5.031212,-5.9541 -6.623933,-9.7796 -1.577835,-3.82551 -2.366753,-8.09758 -2.366753,-12.8162 z m 13.471144,0 c 0,2.76866 0.431672,5.31403 1.295016,7.62125 0.863344,2.30721 2.098819,4.30183 3.706425,5.99875 1.607606,1.69692 3.542688,3.00682 5.790359,3.95947 2.247672,0.93777 4.763278,1.4141 7.531933,1.4141 2.768655,0 5.284261,-0.47633 7.531932,-1.4141 2.247672,-0.93777 4.167868,-2.26255 5.790359,-3.95947 1.607607,-1.69692 2.843082,-3.69154 3.706426,-5.99875 0.863344,-2.30722 1.295016,-4.83771 1.295016,-7.62125 0,-2.724 -0.431672,-5.2396 -1.295016,-7.57658 -0.863344,-2.33699 -2.098819,-4.3465 -3.706426,-6.02853 -1.607606,-1.69692 -3.542687,-3.00682 -5.790359,-3.95947 -2.247671,-0.93777 -4.763277,-1.4141 -7.531932,-1.4141 -2.768655,0 -5.284261,0.47633 -7.531933,1.4141 -2.247671,0.93777 -4.182753,2.26255 -5.790359,3.95947 -1.607606,1.69692 -2.843081,3.70643 -3.706425,6.02853 -0.863344,2.33698 -1.295016,4.85258 -1.295016,7.57658 z"
     class="st1"
     inkscape:connector-curvature="0"
     style="fill:#ffffff;stroke-width:0.14885242" /><path
     id="path213"
     d="m 54.782237,-90.444311 c -5.581966,0 -10.73226,-0.878229 -15.450881,-2.619803 -3.140786,-1.161049 -5.998753,-2.679343 -8.559014,-4.525113 -0.267935,20.988191 0.193508,42.125235 0.193508,42.125235 0,0 13.679537,-17.594357 26.272452,-35.054745 -0.818688,0.04466 -1.637377,0.07443 -2.456065,0.07443 z"
     class="st0"
     inkscape:connector-curvature="0"
     style="fill:#f26522;stroke-width:0.14885242" /></g></svg>