<?xml version="1.0" encoding="utf-8"?>
<!-- Generator: Adobe Illustrator 22.0.0, SVG Export Plug-In . SVG Version: 6.00 Build 0)  -->
<svg version="1.1" id="Layer_1" xmlns="http://www.w3.org/2000/svg" xmlns:xlink="http://www.w3.org/1999/xlink" x="0px" y="0px"
	 width="2126px" height="1133.9px" viewBox="0 0 2126 1133.9" style="enable-background:new 0 0 2126 1133.9;" xml:space="preserve"
	>
<style type="text/css">
	.st0{fill:#F26522;}
	.st1{fill:#FFFFFF;}
</style>
<g>
	<path class="st0" d="M1042.1,306.9c37.5,0,72.1,5.9,103.8,17.6c20.1,7.5,38.4,17,55,28.5c1.5-133.4-1.4-265.6-1.4-265.6
		s-84.9,109.1-164.8,219.6C1037.1,307,1039.6,306.9,1042.1,306.9z"/>
	<g>
		<g>
			<path class="st1" d="M404.1,458c-7.1-8.9-16.7-15.6-28.8-19.8c-12.1-4.3-23.6-6.4-34.4-6.4c-6.3,0-12.9,0.8-19.6,2.2
				c-6.7,1.5-13.1,3.8-19,7c-6,3.2-10.8,7.4-14.5,12.6s-5.6,11.6-5.6,19c0,11.9,4.5,21.1,13.4,27.4s20.2,11.7,33.8,16.2
				c13.6,4.5,28.2,8.9,43.9,13.4c15.7,4.5,30.3,10.8,43.9,19s24.9,19.2,33.8,33s13.4,32.2,13.4,55.4c0,22-4.1,41.2-12.3,57.6
				c-8.2,16.4-19.3,30-33.3,40.8s-30.2,18.8-48.6,24s-37.9,7.8-58.4,7.8c-25.7,0-49.6-3.9-71.6-11.7s-42.5-20.5-61.5-38l62.1-68.2
				c8.9,11.9,20.2,21.2,33.8,27.7c13.6,6.5,27.7,9.8,42.2,9.8c7.1,0,14.3-0.8,21.5-2.5c7.3-1.7,13.8-4.2,19.6-7.5
				c5.8-3.4,10.4-7.6,14-12.9c3.5-5.2,5.3-11.4,5.3-18.4c0-11.9-4.6-21.3-13.7-28.2s-20.6-12.8-34.4-17.6s-28.7-9.7-44.7-14.5
				s-30.9-11.4-44.7-19.6c-13.8-8.2-25.3-19-34.4-32.4s-13.7-31.1-13.7-53.1c0-21.2,4.2-39.9,12.6-55.9c8.4-16,19.6-29.4,33.5-40.3
				c14-10.8,30.1-18.9,48.4-24.3c18.3-5.4,37.1-8.1,56.5-8.1c22.4,0,44,3.2,64.9,9.5s39.7,17,56.5,31.9L404.1,458z"/>
			<path class="st1" d="M626.6,588.3l-148.7-227h108.5l83.9,148.2l88.9-148.2h103.4l-148.7,227v168.9h-87.2V588.3H626.6z"/>
			<path class="st1" d="M828.5,559.2c0-31.7,5.3-60.4,15.9-86.1c10.6-25.7,25.4-47.6,44.5-65.7c19-18.1,41.6-32,67.7-41.7
				c26.1-9.7,54.6-14.5,85.6-14.5c30.9,0,59.5,4.9,85.6,14.5c26.1,9.7,48.6,23.6,67.7,41.7c19,18.1,33.8,40,44.4,65.7
				s15.9,54.4,15.9,86.1c0,31.7-5.3,60.4-15.9,86.1c-10.6,25.7-25.4,47.6-44.4,65.7c-19,18.1-41.6,32-67.7,41.7
				s-54.6,14.5-85.6,14.5c-30.9,0-59.5-4.9-85.6-14.5c-26.1-9.7-48.6-23.6-67.7-41.7c-19-18.1-33.8-40-44.5-65.7
				C833.8,619.6,828.5,590.9,828.5,559.2z M919,559.2c0,18.6,2.9,35.7,8.7,51.2s14.1,28.9,24.9,40.3c10.8,11.4,23.8,20.2,38.9,26.6
				c15.1,6.3,32,9.5,50.6,9.5c18.6,0,35.5-3.2,50.6-9.5s28-15.2,38.9-26.6c10.8-11.4,19.1-24.8,24.9-40.3s8.7-32.5,8.7-51.2
				c0-18.3-2.9-35.2-8.7-50.9c-5.8-15.7-14.1-29.2-24.9-40.5c-10.8-11.4-23.8-20.2-38.9-26.6c-15.1-6.3-32-9.5-50.6-9.5
				s-35.5,3.2-50.6,9.5s-28.1,15.2-38.9,26.6c-10.8,11.4-19.1,24.9-24.9,40.5C921.9,524,919,540.9,919,559.2z"/>
			<path class="st1" d="M1496.6,458c-7.1-8.9-16.7-15.6-28.8-19.8c-12.1-4.3-23.6-6.4-34.4-6.4c-6.3,0-12.9,0.8-19.6,2.2
				c-6.7,1.5-13.1,3.8-19,7c-6,3.2-10.8,7.4-14.5,12.6s-5.6,11.6-5.6,19c0,11.9,4.5,21.1,13.4,27.4s20.2,11.7,33.8,16.2
				c13.6,4.5,28.2,8.9,43.9,13.4c15.7,4.5,30.3,10.8,43.9,19s24.9,19.2,33.8,33s13.4,32.2,13.4,55.4c0,22-4.1,41.2-12.3,57.6
				c-8.2,16.4-19.3,30-33.3,40.8s-30.2,18.8-48.6,24s-37.9,7.8-58.4,7.8c-25.7,0-49.6-3.9-71.6-11.7s-42.5-20.5-61.5-38l62.1-68.2
				c8.9,11.9,20.2,21.2,33.8,27.7c13.6,6.5,27.7,9.8,42.2,9.8c7.1,0,14.3-0.8,21.5-2.5c7.3-1.7,13.8-4.2,19.6-7.5
				c5.8-3.4,10.4-7.6,14-12.9c3.5-5.2,5.3-11.4,5.3-18.4c0-11.9-4.6-21.3-13.7-28.2s-20.6-12.8-34.4-17.6s-28.7-9.7-44.7-14.5
				s-30.9-11.4-44.7-19.6c-13.8-8.2-25.3-19-34.4-32.4s-13.7-31.1-13.7-53.1c0-21.2,4.2-39.9,12.6-55.9s19.6-29.4,33.5-40.3
				c14-10.8,30.1-18.9,48.4-24.3s37.1-8.1,56.5-8.1c22.4,0,44,3.2,64.9,9.5s39.7,17,56.5,31.9L1496.6,458z"/>
		</g>
	</g>
	<g>
		<g>
			<path class="st1" d="M1147.9,816.4h10l34.9,81.5h-12.9l-8.2-20.1h-38.8l-8.1,20.1H1112L1147.9,816.4z M1167.7,868.1l-15.2-37.4
				h-0.2l-15.4,37.4H1167.7z"/>
			<path class="st1" d="M1224.3,816.4h52.6v10.4h-41.5v24.3h38.7v10.4h-38.7v26.1h43.6V898h-54.7V816.4z"/>
			<path class="st1" d="M1315.5,816.4h28.7c5.2,0,9.5,0.7,12.9,2.1c3.4,1.4,6,3.2,8,5.4s3.3,4.6,4.1,7.4c0.8,2.7,1.1,5.4,1.1,7.9
				c0,2.6-0.5,5.1-1.4,7.5s-2.2,4.6-4,6.6c-1.7,2-3.8,3.6-6.3,4.9c-2.5,1.3-5.3,2.2-8.3,2.5l23.1,37.2h-13.8l-20.7-35.9h-12.3v35.9
				h-11L1315.5,816.4L1315.5,816.4z M1326.6,852.3h14.5c2.1,0,4.3-0.2,6.4-0.5s4-1,5.6-1.9s3-2.2,4-4c1-1.7,1.5-4,1.5-6.7
				c0-2.8-0.5-5-1.5-6.7s-2.3-3.1-4-4s-3.5-1.6-5.6-1.9c-2.1-0.3-4.2-0.5-6.4-0.5h-14.5V852.3z"/>
			<path class="st1" d="M1444.2,900c-6.2,0-11.9-1.1-17.1-3.3s-9.7-5.2-13.4-9c-3.7-3.8-6.6-8.4-8.7-13.6
				c-2.1-5.2-3.2-10.9-3.2-16.9s1.1-11.7,3.2-16.9s5-9.7,8.7-13.6c3.7-3.8,8.2-6.8,13.4-9c5.2-2.2,10.9-3.3,17.1-3.3
				s11.9,1.1,17.1,3.3s9.7,5.2,13.4,9c3.7,3.8,6.6,8.4,8.7,13.6c2.1,5.2,3.2,10.9,3.2,16.9s-1.1,11.7-3.2,16.9s-5,9.7-8.7,13.6
				c-3.7,3.8-8.2,6.8-13.4,9C1456.1,898.9,1450.4,900,1444.2,900z M1444.2,889.6c4.7,0,8.9-0.9,12.7-2.6c3.8-1.7,7-4,9.7-7
				c2.7-2.9,4.8-6.3,6.2-10.3c1.5-4,2.2-8.2,2.2-12.6c0-4.4-0.7-8.6-2.2-12.6s-3.5-7.4-6.2-10.3c-2.7-2.9-5.9-5.2-9.7-7
				c-3.8-1.7-8-2.6-12.7-2.6s-8.9,0.9-12.7,2.6c-3.8,1.7-7,4-9.7,7c-2.7,2.9-4.8,6.3-6.2,10.3c-1.5,4-2.2,8.2-2.2,12.6
				c0,4.4,0.7,8.6,2.2,12.6s3.5,7.4,6.2,10.3c2.7,2.9,5.9,5.2,9.7,7C1435.3,888.8,1439.5,889.6,1444.2,889.6z"/>
			<path class="st1" d="M1525.8,880.9c2,3,4.5,5.2,7.7,6.6c3.1,1.4,6.3,2.1,9.6,2.1c1.8,0,3.7-0.3,5.6-0.9s3.7-1.4,5.2-2.6
				c1.6-1.1,2.9-2.6,3.9-4.3s1.5-3.6,1.5-5.9c0-3.1-1-5.5-3-7.2c-2-1.6-4.5-3-7.4-4.1c-3-1.1-6.2-2.2-9.7-3.2s-6.7-2.5-9.7-4.3
				s-5.4-4.3-7.4-7.4c-2-3.1-3-7.3-3-12.6c0-2.4,0.5-4.9,1.6-7.6c1-2.7,2.7-5.1,4.9-7.4c2.2-2.2,5.1-4.1,8.6-5.6s7.7-2.2,12.6-2.2
				c4.4,0,8.7,0.6,12.8,1.8c4.1,1.2,7.6,3.7,10.7,7.5l-9,8.2c-1.4-2.2-3.3-3.9-5.9-5.2c-2.5-1.3-5.4-2-8.6-2c-3.1,0-5.6,0.4-7.7,1.2
				c-2,0.8-3.7,1.8-4.9,3.1c-1.2,1.3-2.1,2.6-2.6,4.1s-0.7,2.8-0.7,4c0,3.5,1,6.1,3,7.9c2,1.8,4.5,3.3,7.4,4.5
				c3,1.1,6.2,2.2,9.7,3.1c3.5,0.9,6.7,2.2,9.7,3.9c3,1.6,5.4,3.9,7.4,6.7s3,6.7,3,11.6c0,3.9-0.7,7.4-2.2,10.6
				c-1.5,3.1-3.5,5.8-6,7.9c-2.5,2.1-5.5,3.8-9,4.9c-3.5,1.2-7.1,1.7-11,1.7c-5.2,0-10.2-0.9-14.8-2.8c-4.7-1.8-8.4-4.7-11.2-8.5
				L1525.8,880.9z"/>
			<path class="st1" d="M1608.4,816.4h28.7c5.2,0,9.5,0.7,12.9,2.1c3.4,1.4,6,3.2,8,5.4s3.3,4.6,4.1,7.4c0.8,2.7,1.1,5.4,1.1,7.9
				s-0.4,5.2-1.1,7.9s-2.1,5.2-4.1,7.4s-4.6,4-8,5.4s-7.7,2.1-12.9,2.1h-17.6v35.9h-11L1608.4,816.4L1608.4,816.4z M1619.4,852.3
				h14.5c2.1,0,4.3-0.2,6.4-0.5s4-1,5.6-1.9s3-2.2,4-4c1-1.7,1.5-4,1.5-6.7c0-2.8-0.5-5-1.5-6.7s-2.3-3.1-4-4s-3.5-1.6-5.6-1.9
				c-2.1-0.3-4.2-0.5-6.4-0.5h-14.5V852.3z"/>
			<path class="st1" d="M1714.6,816.4h10l34.9,81.5h-12.9l-8.2-20.1h-38.8l-8.1,20.1h-12.9L1714.6,816.4z M1734.3,868.1l-15.2-37.4
				h-0.2l-15.4,37.4H1734.3z"/>
			<path class="st1" d="M1847.7,834c-2.3-3-5.2-5.3-8.7-6.9s-7.2-2.4-10.9-2.4c-4.6,0-8.8,0.9-12.5,2.6c-3.7,1.7-6.9,4.1-9.5,7.1
				s-4.7,6.5-6.2,10.5s-2.2,8.3-2.2,12.9c0,4.3,0.7,8.4,2.1,12.2s3.4,7.2,6,10.1c2.6,2.9,5.8,5.2,9.5,6.9c3.8,1.7,8,2.5,12.8,2.5
				c4.7,0,8.8-1,12.3-2.9s6.5-4.6,9-8.1l9.3,7c-0.6,0.8-1.7,2-3.2,3.6s-3.6,3.1-6.1,4.7c-2.5,1.6-5.6,3-9.1,4.1
				c-3.6,1.2-7.7,1.8-12.4,1.8c-6.4,0-12.3-1.2-17.4-3.7c-5.2-2.5-9.6-5.7-13.2-9.7s-6.4-8.5-8.3-13.5s-2.9-10.1-2.9-15.2
				c0-6.3,1-12.1,3.1-17.4c2.1-5.3,5-9.9,8.7-13.8c3.7-3.9,8.2-6.9,13.4-9c5.2-2.1,11-3.2,17.3-3.2c5.4,0,10.6,1,15.8,3.1
				c5.2,2.1,9.4,5.3,12.7,9.5L1847.7,834z"/>
			<path class="st1" d="M1892.9,816.4h52.6v10.4H1904v24.3h38.7v10.4H1904v26.1h43.6V898h-54.7V816.4z"/>
		</g>
	</g>
	<path class="st0" d="M1042.1,811.5c-37.5,0-72.1-5.9-103.8-17.6c-21.1-7.8-40.3-18-57.5-30.4c-1.8,141,1.3,283,1.3,283
		S974,928.3,1058.6,811C1053.1,811.3,1047.6,811.5,1042.1,811.5z"/>
</g>
</svg>
